# xmcd
#
# Track frame offsets:
# 150
# 5682
# 22043
# 44601
# 63859
# 79631
# 92181
# 114946
# 131524
# 145492
# 160751
# 176107
# 194728
# 211959
# 228867
# 246505
# 260569
#
# Disc length: 3651 seconds
#
#
# Revision: 82682827
# Processed by: cddbd v1.5.2PL0 Copyright (c) Steve Scherf et al.
# Submitted via: FreeRIP 2.951 
#
DISCID=f40e4111
DTITLE=Tony Yayo - Thoughts Of A Predicate Felon
DYEAR=2005
DGENRE=Hip-Hop
TTITLE0=Intro
TTITLE1=Homicide
TTITLE2=It Is What It Is (Featuring Spider Loc)
TTITLE3=Tattle Teller
TTITLE4=So Seductive (Featuring 50 Cent)
TTITLE5=Eastside Westside
TTITLE6=Drama Setter (Featuring Eminem and Obie Trice)
TTITLE7=We Don't Give A Fuck (Featuring 50 Cent, Lloyd Banks and Olivia)
TTITLE8=Pimpin
TTITLE9=Curious (Featuring Joe)
TTITLE10=I'm So High
TTITLE11=Love My Style
TTITLE12=Project Princess (Featuring Jagged Edge)
TTITLE13=G-Shit
TTITLE14=I Know You Don't Love Me (Featuring G-Unit )
TTITLE15=Dear Suzie
TTITLE16=Live By The Gun
EXTD=
EXTT0=
EXTT1=
EXTT2=
EXTT3=
EXTT4=
EXTT5=
EXTT6=
EXTT7=
EXTT8=
EXTT9=
EXTT10=
EXTT11=
EXTT12=
EXTT13=
EXTT14=
EXTT15=
EXTT16=
PLAYORDER=
